<?xml version="1.0" encoding="utf-8"?>
<!-- Generator: Adobe Illustrator 19.0.0, SVG Export Plug-In . SVG Version: 6.00 Build 0)  -->
<svg version="1.1" id="Layer_1" xmlns="http://www.w3.org/2000/svg" xmlns:xlink="http://www.w3.org/1999/xlink" x="0px" y="0px"
	 viewBox="0 0 245 50" style="enable-background:new 0 0 245 50;" xml:space="preserve">
<style type="text/css">
	.st0{enable-background:new    ;}
	.st1{fill:#FFFFFF;}
	.st2{fill:rgb(73, 216, 124);}
	.st3{fill:#F1F2F2;}
	.st4{fill:none;stroke:rgb(73, 216, 124);stroke-width:4;stroke-miterlimit:10;}
	.st5{fill:none;stroke:#66BF77;stroke-width:6;stroke-miterlimit:10;}
	.st6{fill:none;stroke:#FFFFFF;stroke-width:4;stroke-miterlimit:10;}
	.st7{fill:none;}
</style>
<g class="st0">
	<path class="st1" d="M63.5,32.4c-1.4,0.7-3.1,1-5.3,1c-2.8,0-5.1-0.8-6.7-2.5c-1.6-1.7-2.4-3.9-2.4-6.7c0-3,0.9-5.4,2.7-7.2
		c1.8-1.8,4.2-2.8,7.1-2.8c1.8,0,3.3,0.2,4.6,0.7v4c-1.2-0.7-2.7-1.1-4.2-1.1c-1.7,0-3.1,0.5-4.2,1.6s-1.6,2.6-1.6,4.4
		c0,1.8,0.5,3.2,1.5,4.3c1,1.1,2.4,1.6,4.1,1.6c1.6,0,3.1-0.4,4.5-1.2V32.4z"/>
	<path class="st1" d="M75,23.5c-0.5-0.3-1.1-0.4-1.7-0.4c-0.9,0-1.6,0.3-2.1,1c-0.5,0.6-0.7,1.5-0.7,2.7v6.3h-4.1V19.9h4.1v2.5h0.1
		c0.6-1.8,1.8-2.7,3.5-2.7c0.4,0,0.8,0.1,1,0.2V23.5z"/>
	<path class="st1" d="M90.5,19.9l-5.4,14.3c-1.3,3.4-3.2,5.1-5.8,5.1c-1,0-1.8-0.1-2.4-0.3v-3.3c0.5,0.3,1.1,0.5,1.8,0.5
		c1,0,1.8-0.5,2.2-1.5l0.7-1.6l-5.4-13.2h4.5l2.5,8c0.2,0.5,0.3,1.1,0.4,1.8h0.1c0.1-0.5,0.2-1.1,0.4-1.7l2.5-8.1H90.5z"/>
	<path class="st1" d="M96.3,31.5L96.3,31.5l-0.1,7.6h-4.1V19.9h4.1v2h0.1c1-1.5,2.4-2.3,4.2-2.3c1.7,0,3,0.6,4,1.8
		c0.9,1.2,1.4,2.8,1.4,4.8c0,2.2-0.5,4-1.6,5.3s-2.5,2-4.3,2C98.3,33.4,97.1,32.8,96.3,31.5z M96.1,26.1v1.1c0,0.9,0.2,1.7,0.7,2.2
		c0.5,0.6,1.1,0.9,1.9,0.9c0.9,0,1.6-0.4,2.2-1.1c0.5-0.7,0.8-1.7,0.8-3.1c0-2.3-0.9-3.5-2.7-3.5c-0.8,0-1.5,0.3-2,0.9
		C96.4,24.3,96.1,25.1,96.1,26.1z"/>
	<path class="st1" d="M116.5,32.9c-0.6,0.3-1.5,0.5-2.7,0.5c-2.9,0-4.3-1.5-4.3-4.5v-6.1h-2.1v-3h2.1V17l4.1-1.2v4h3v3h-3v5.3
		c0,1.4,0.5,2.1,1.6,2.1c0.4,0,0.9-0.1,1.3-0.4V32.9z"/>
	<path class="st1" d="M125,33.4c-2.2,0-3.9-0.6-5.2-1.9s-1.9-2.9-1.9-5c0-2.2,0.7-3.9,2-5.1c1.3-1.2,3.1-1.9,5.3-1.9
		c2.2,0,3.9,0.6,5.2,1.9c1.2,1.2,1.9,2.9,1.9,4.9c0,2.2-0.6,3.9-1.9,5.2C129,32.8,127.2,33.4,125,33.4z M125.1,22.7
		c-1,0-1.7,0.3-2.2,1c-0.5,0.7-0.8,1.6-0.8,2.8c0,2.5,1,3.8,3.1,3.8c2,0,2.9-1.3,2.9-3.9C128.1,23.9,127.1,22.7,125.1,22.7z"/>
</g>
<g class="st0">
	<path class="st2" d="M148.9,33.2c-1.4,0.7-3.1,1-5.3,1c-2.8,0-5.1-0.8-6.7-2.5c-1.6-1.7-2.4-3.9-2.4-6.7c0-3,0.9-5.4,2.7-7.2
		s4.2-2.8,7.1-2.8c1.8,0,3.3,0.2,4.6,0.7v4c-1.2-0.7-2.7-1.1-4.2-1.1c-1.7,0-3.1,0.5-4.2,1.6c-1.1,1.1-1.6,2.6-1.6,4.4
		c0,1.8,0.5,3.2,1.5,4.3c1,1.1,2.4,1.6,4.1,1.6c1.6,0,3.1-0.4,4.5-1.2V33.2z"/>
	<path class="st2" d="M158,34.2c-2.2,0-3.9-0.6-5.2-1.9c-1.3-1.2-1.9-2.9-1.9-5c0-2.2,0.7-3.9,2-5.1c1.3-1.2,3.1-1.9,5.3-1.9
		c2.2,0,3.9,0.6,5.2,1.9c1.2,1.2,1.9,2.9,1.9,4.9c0,2.2-0.6,3.9-1.9,5.2C162,33.6,160.2,34.2,158,34.2z M158.1,23.5
		c-1,0-1.7,0.3-2.2,1c-0.5,0.7-0.8,1.6-0.8,2.8c0,2.5,1,3.8,3.1,3.8c2,0,2.9-1.3,2.9-3.9C161,24.7,160.1,23.5,158.1,23.5z"/>
	<path class="st2" d="M188.8,33.9h-4.1v-7.5c0-1.9-0.7-2.9-2.1-2.9c-0.7,0-1.2,0.3-1.6,0.9c-0.4,0.6-0.6,1.3-0.6,2.2v7.4h-4.1v-7.6
		c0-1.9-0.7-2.8-2.1-2.8c-0.7,0-1.3,0.3-1.7,0.8c-0.4,0.6-0.6,1.3-0.6,2.2v7.3h-4.1V20.7h4.1v2.1h0.1c0.4-0.7,1-1.3,1.8-1.7
		s1.6-0.7,2.5-0.7c1.9,0,3.1,0.8,3.8,2.5c1-1.6,2.5-2.5,4.4-2.5c2.9,0,4.3,1.8,4.3,5.3V33.9z"/>
	<path class="st2" d="M196.2,32.3L196.2,32.3l-0.1,7.6h-4.1V20.7h4.1v2h0.1c1-1.5,2.4-2.3,4.2-2.3c1.7,0,3,0.6,4,1.8
		c0.9,1.2,1.4,2.8,1.4,4.8c0,2.2-0.5,4-1.6,5.3c-1.1,1.3-2.5,2-4.3,2C198.3,34.2,197,33.6,196.2,32.3z M196.1,26.9V28
		c0,0.9,0.2,1.7,0.7,2.2c0.5,0.6,1.1,0.9,1.9,0.9c0.9,0,1.7-0.4,2.2-1.1c0.5-0.7,0.8-1.7,0.8-3.1c0-2.3-0.9-3.5-2.7-3.5
		c-0.8,0-1.5,0.3-2,0.9S196.1,25.9,196.1,26.9z"/>
	<path class="st2" d="M219.2,33.9h-3.9V32h-0.1c-0.9,1.5-2.2,2.2-3.9,2.2c-1.3,0-2.3-0.4-3-1.1c-0.7-0.7-1.1-1.7-1.1-2.9
		c0-2.6,1.5-4,4.6-4.4l3.6-0.5c0-1.4-0.8-2.2-2.4-2.2c-1.6,0-3.1,0.5-4.5,1.4v-3.1c0.6-0.3,1.3-0.6,2.3-0.8c1-0.2,1.9-0.3,2.7-0.3
		c3.8,0,5.7,1.9,5.7,5.6V33.9z M215.4,28.5v-0.9l-2.4,0.3c-1.3,0.2-2,0.8-2,1.8c0,0.5,0.2,0.8,0.5,1.1c0.3,0.3,0.8,0.4,1.3,0.4
		c0.8,0,1.4-0.3,1.9-0.8S215.4,29.3,215.4,28.5z"/>
	<path class="st2" d="M231.1,24.3c-0.5-0.3-1.1-0.4-1.7-0.4c-0.9,0-1.6,0.3-2.1,1c-0.5,0.7-0.7,1.5-0.7,2.7v6.3h-4.1V20.7h4.1v2.5
		h0.1c0.6-1.8,1.8-2.7,3.5-2.7c0.4,0,0.8,0.1,1,0.2V24.3z"/>
	<path class="st2" d="M244.7,28.4h-8.6c0.1,1.9,1.3,2.9,3.6,2.9c1.5,0,2.7-0.3,3.8-1v2.9c-1.2,0.7-2.8,1-4.8,1c-2.1,0-3.8-0.6-5-1.8
		s-1.8-2.8-1.8-5c0-2.2,0.6-3.9,1.9-5.2c1.3-1.3,2.8-1.9,4.7-1.9c1.9,0,3.4,0.6,4.5,1.7c1.1,1.1,1.6,2.7,1.6,4.7V28.4z M241,25.9
		c0-1.9-0.8-2.8-2.3-2.8c-0.7,0-1.2,0.3-1.7,0.8c-0.5,0.5-0.8,1.2-0.9,2H241z"/>
</g>
<polyline id="XMLID_17_" class="st1" points="16.4,31.6 16.4,28.2 20,24.6 20,31.6 "/>
<polyline id="XMLID_16_" class="st3" points="21.7,31.6 21.7,26.8 23.4,28.1 25.5,26.3 25.5,31.6 "/>
<polyline id="XMLID_15_" class="st3" points="27,31.6 31.1,31.6 31.1,21.4 27,25.1 "/>
<path id="XMLID_14_" class="st2" d="M16.2,26.3l-0.8-1l4.6-4.4l3.3,3.1l5.9-5.3l-1-1.2l4.1-0.9l-0.8,4l-1.2-0.8l-7.1,6.8l-3.2-3
	l-0.3-0.3c0,0-3.1,3.2-3.3,3.1"/>
<path id="XMLID_13_" class="st4" d="M21.5,12.7c10.3-2.8,20.1,0.2,21.9,6.8s-5.1,14.2-15.5,17"/>
<path id="XMLID_12_" class="st5" d="M7.4,29.2"/>
<path id="XMLID_11_" class="st6" d="M26.6,37c-10.3,2.8-20.1-0.2-21.9-6.8s5.1-14.2,15.5-17"/>
<rect id="_x3C_Slice_x3E__1_" y="8.6" class="st7" width="248.3" height="31.4"/>
</svg>
